{
  "accessors": [
    {
      "bufferView": 0,
      "componentType": 5125,
      "count": 65184,
      "type": "SCALAR"
    },
    {
      "bufferView": 1,
      "componentType": 5126,
      "count": 11839,
      "max": [
        14.6643009185791,
        48.1957092285156,
        15.4315013885498
      ],
      "min": [
        -13.4039001464844,
        0.0716037750244141,
        -16.693000793457
      ],
      "type": "VEC3"
    },
    {
      "bufferView": 2,
      "componentType": 5126,
      "count": 11839,
      "type": "VEC3"
    },
    {
      "bufferView": 3,
      "componentType": 5126,
      "count": 11839,
      "type": "VEC2"
    }
  ],
  "asset": {
    "generator": "Substance Painter 6.2.1",
    "version": "2.0"
  },
  "bufferViews": [
    {
      "buffer": 0,
      "byteLength": 260736,
      "target": 34963
    },
    {
      "buffer": 0,
      "byteLength": 142068,
      "byteOffset": 260736,
      "target": 34962
    },
    {
      "buffer": 0,
      "byteLength": 142068,
      "byteOffset": 402804,
      "target": 34962
    },
    {
      "buffer": 0,
      "byteLength": 94712,
      "byteOffset": 544872,
      "target": 34962
    }
  ],
  "buffers": [
    {
      "byteLength": 639584,
      "uri": "Armchair.bin"
    }
  ],
  "images": [
    {
      "uri": "Armchair_baseColor.png"
    },
    {
      "uri": "Armchair_occlusionRoughnessMetallic.png"
    },
    {
      "uri": "Armchair_normal.png"
    }
  ],
  "materials": [
    {
      "alphaMode": "OPAQUE",
      "name": "Armchair",
      "normalTexture": {
        "index": 2
      },
      "occlusionTexture": {
        "index": 1
      },
      "pbrMetallicRoughness": {
        "baseColorTexture": {
          "index": 0
        },
        "metallicRoughnessTexture": {
          "index": 1
        }
      }
    }
  ],
  "meshes": [
    {
      "name": "_Box003",
      "primitives": [
        {
          "attributes": {
            "NORMAL": 2,
            "POSITION": 1,
            "TEXCOORD_0": 3
          },
          "indices": 0,
          "material": 0,
          "mode": 4
        }
      ]
    }
  ],
  "nodes": [
    {
      "children": [
        1
      ],
      "name": "Armchair.obj"
    },
    {
      "children": [
        2
      ],
      "name": "_Box003"
    },
    {
      "mesh": 0,
      "name": "_Box003"
    }
  ],
  "samplers": [
    {
      "magFilter": 9729,
      "minFilter": 9985,
      "wrapS": 10497,
      "wrapT": 10497
    }
  ],
  "scene": 0,
  "scenes": [
    {
      "name": "Scene",
      "nodes": [
        0
      ]
    }
  ],
  "textures": [
    {
      "sampler": 0,
      "source": 0
    },
    {
      "sampler": 0,
      "source": 1
    },
    {
      "sampler": 0,
      "source": 2
    }
  ]
}